HIERARCHY
ROOT Hips
{
  OFFSET 179.979 97.3047 303.174
  CHANNELS 6 Xposition Yposition Zposition Zrotation Xrotation Yrotation
  JOINT Spine
  {
    OFFSET 0.000859786 9.92346 -1.22733
    CHANNELS 3 Zrotation Xrotation Yrotation
    JOINT Spine1
    {
      OFFSET 0 11.732 0
      CHANNELS 3 Zrotation Xrotation Yrotation
      JOINT Spine2
      {
        OFFSET 0 13.4588 0
        CHANNELS 3 Zrotation Xrotation Yrotation
        JOINT Neck
        {
          OFFSET 2.54812e-05 15.0278 0.877907
          CHANNELS 3 Zrotation Xrotation Yrotation
          JOINT Head
          {
            OFFSET 0 10.3218 3.14243
            CHANNELS 3 Zrotation Xrotation Yrotation
            End Site
            {
              OFFSET 0 0 0
            }
          }
        }
        JOINT LeftShoulder
        {
          OFFSET 6.10582 9.10629 0.757062
          CHANNELS 3 Zrotation Xrotation Yrotation
          JOINT LeftArm
          {
            OFFSET 0 12.9223 0
            CHANNELS 3 Zrotation Xrotation Yrotation
            JOINT LeftForeArm
            {
              OFFSET 0 27.4047 0
              CHANNELS 3 Zrotation Xrotation Yrotation
              JOINT LeftHand
              {
                OFFSET -1.28204e-05 27.6145 0
                CHANNELS 3 Zrotation Xrotation Yrotation
                End Site
                {
                  OFFSET 0 0 0
                }
              }
            }
          }
        }
        JOINT RightShoulder
        {
          OFFSET -6.1057 9.10638 0.757076
          CHANNELS 3 Zrotation Xrotation Yrotation
          JOINT RightArm
          {
            OFFSET 0 12.9223 0
            CHANNELS 3 Zrotation Xrotation Yrotation
            JOINT RightForeArm
            {
              OFFSET 0 27.4047 0
              CHANNELS 3 Zrotation Xrotation Yrotation
              JOINT RightHand
              {
                OFFSET 1.28428e-05 27.6145 1.44975e-05
                CHANNELS 3 Zrotation Xrotation Yrotation
                End Site
                {
                  OFFSET 0 0 0
                }
              }
            }
          }
        }
      }
    }
  }
  JOINT LeftUpLeg
  {
    OFFSET 9.12387 -6.65719 -0.0554031
    CHANNELS 3 Zrotation Xrotation Yrotation
    JOINT LeftLeg
    {
      OFFSET 0 40.5994 0
      CHANNELS 3 Zrotation Xrotation Yrotation
      JOINT LeftFoot
      {
        OFFSET 0 42.099 0
        CHANNELS 3 Zrotation Xrotation Yrotation
        JOINT LeftToeBase
        {
          OFFSET 0 15.7216 0
          CHANNELS 3 Zrotation Xrotation Yrotation
          End Site
          {
            OFFSET 0 0 0
          }
        }
      }
    }
  }
  JOINT RightUpLeg
  {
    OFFSET -9.12503 -6.6556 -0.0553527
    CHANNELS 3 Zrotation Xrotation Yrotation
    JOINT RightLeg
    {
      OFFSET 0 40.5994 0
      CHANNELS 3 Zrotation Xrotation Yrotation
      JOINT RightFoot
      {
        OFFSET 0 42.099 0
        CHANNELS 3 Zrotation Xrotation Yrotation
        JOINT RightToeBase
        {
          OFFSET 0 15.7216 0
          CHANNELS 3 Zrotation Xrotation Yrotation
          End Site
          {
            OFFSET 0 0 0
          }
        }
      }
    }
  }
}
MOTION
Frames:	13
Frame Time:	0.0333333
-95.1206 96.6133 -163.25 0.774271 -1.5879 17.3798 1.61795 -1.97373 2.26659 3.07733 10.05 4.02 2.59536 16.6278 4.13297 -5.81978 6.64252 -1.89892 8.62856 -12.5428 -4.66945 -103.827 -17.246 89.6939 -11.4112 65.9987 36.1241 18.3045 -15.0656 -0.71812 -9.10379 -3.52187 44.478 106.941 -15.2964 -90.1459 -46.7332 48.3324 -5.11741 -40.9487 -17.6201 1.04419 4.8647 -4.44016 -4.83513 -170.242 24.487 0.286302 -2.04147 -41.4314 -6.80642 8.4507 66.6446 -10.5506 -0.965272 26.367 -3.60229 171.925 1.84349 10.1967 6.44858 -20.5726 8.48317 -18.6114 75.9682 20.2673 0.963539 26.3682 3.55537 
-94.1508 96.4798 -163.566 0.297822 -2.3274 17.8936 1.55905 -2.07214 2.10592 2.9743 9.84789 3.71861 2.52899 16.4281 3.82152 -5.66886 6.58606 -1.75685 8.66787 -14.5265 -4.33854 -103.801 -17.6369 89.6079 -9.51422 65.7913 34.2182 18.7766 -15.2892 -0.729251 -9.41015 -4.10519 39.4157 108.359 -16.3584 -89.8572 -43.4972 49.4162 -8.30502 -40.6551 -17.9319 1.05569 4.69395 -5.61923 -7.7365 -167.961 21.2692 1.66307 -2.00605 -40.3233 -8.7709 12.7348 66.7578 -14.2142 -0.965272 26.367 -3.60229 171.883 0.62209 10.4854 6.71818 -19.6119 8.4663 -17.289 75.4928 19.3971 0.963539 26.3682 3.55537 
-93.1158 96.4024 -163.85 -0.0839342 -2.88588 18.5137 1.45993 -2.23925 1.8668 2.79735 9.50607 3.27385 2.40608 16.0895 3.36215 -5.64344 6.72654 -1.44363 8.77934 -16.3694 -3.89105 -103.869 -17.6733 89.5979 -7.72739 65.5076 32.1426 19.7842 -15.3615 -0.734892 -9.98673 -4.16627 33.8302 109.17 -17.429 -89.552 -41.1128 50.8813 -10.3134 -37.7344 -17.7122 1.03062 3.76551 -7.24524 -12.13 -166.157 17.4911 1.4106 -0.834103 -37.3649 -9.84991 16.7784 66.6295 -17.4448 -0.965272 26.367 -3.60229 171.917 -0.350962 9.49848 6.89865 -18.6893 9.2624 -17.713 74.8837 20.6771 0.963539 26.3682 3.55537 
-91.8394 96.2951 -164.105 -0.392626 -3.34036 19.3813 1.31419 -2.42541 1.54874 2.53169 9.12439 2.68573 2.21149 15.7115 2.7561 -5.12398 6.18651 -1.34743 8.60742 -17.5692 -3.5087 -103.519 -17.7911 89.582 -4.82687 65.4059 30.56 20.7697 -15.5856 -0.746558 -9.94402 -4.11371 29.7541 110.033 -18.2455 -89.298 -38.7629 52.0489 -12.2954 -33.2906 -17.5641 0.994714 4.10667 -7.66803 -13.0418 -164.672 13.605 -0.122888 0.209478 -33.5186 -10.4343 18.9001 66.5729 -19.5022 -0.965272 26.367 -3.60229 171.691 -1.30775 8.74884 7.03827 -17.8995 10.027 -17.7913 74.3087 21.8143 0.963539 26.3682 3.55537 
-90.2562 96.1491 -164.426 -0.634454 -3.54548 20.7182 1.19988 -2.66447 1.17574 2.33267 8.63744 1.97765 2.09773 15.2279 2.02763 -5.24929 5.33899 -1.47846 8.83897 -18.1201 -3.61438 -103.52 -17.689 89.6045 -0.410659 65.0895 28.4507 21.61 -15.4134 -0.740081 -9.79353 -5.12006 27.3 110.528 -18.9218 -89.0857 -35.9247 52.7906 -12.7612 -28.3718 -16.0299 0.894527 5.39259 -7.53299 -11.934 -163.866 10.5752 -2.91182 1.27959 -30.3813 -9.5274 15.9727 65.3333 -17.7047 -0.965272 26.367 -3.60229 171.099 -2.13523 8.62403 7.10489 -17.2385 10.6587 -17.0995 73.7084 22.4818 0.963539 26.3682 3.55537 
-88.3989 95.8281 -164.85 -0.950963 -3.69255 22.4622 1.13956 -2.88355 0.812986 2.23922 8.19194 1.2725 2.0888 14.7848 1.30379 -5.74678 4.1565 -1.76572 9.53382 -18.1241 -4.03583 -103.6 -17.5768 89.6267 7.13908 64.5292 24.4909 21.5514 -14.7067 -0.709462 -9.12348 -5.54422 27.4732 111.11 -19.4211 -88.9139 -32.5837 52.7023 -13.5908 -23.2883 -14.3017 0.780342 7.4006 -7.09874 -7.64862 -162.904 8.29533 -5.35495 0.955919 -28.0947 -8.81565 4.77043 67.2126 -17.136 -0.965272 26.367 -3.60229 170.498 -2.65038 9.5269 6.64526 -17.3696 10.8513 -15.5192 73.559 22.6219 0.963539 26.3682 3.55537 
-86.6424 95.9485 -165.304 -0.126682 -3.36226 24.7325 0.855308 -3.00563 0.469361 1.69026 7.94152 0.674117 1.6113 14.5355 0.690615 -6.51571 2.56733 -2.50444 10.5274 -17.4213 -5.03837 -103.386 -17.2999 89.693 17.4373 63.8686 20.0552 21.3435 -14.1748 -0.686581 -8.99007 -5.62531 28.0748 111.81 -19.8961 -88.7372 -28.8929 52.1031 -14.729 -19.0734 -12.8483 0.681569 9.4262 -6.03162 -4.17036 -163.474 7.3226 -7.57431 -0.995826 -26.1211 -7.91226 1.63697 68.7594 -14.5126 -0.965272 26.367 -3.60229 168.883 -3.99253 10.7788 6.11692 -16.1093 11.041 -13.9597 72.7042 22.4753 0.963539 26.3682 3.55537 
-84.6764 95.9226 -166.043 1.20577 -3.05049 27.1855 0.504542 -2.95896 0.28209 0.995719 8.0327 0.407842 0.948485 14.627 0.417988 -7.76935 1.27525 -3.61093 12.0984 -16.7513 -6.58443 -103.385 -16.4213 89.8837 29.1616 62.2709 14.5245 21.1475 -13.5081 -0.658386 -8.95589 -5.28964 31.1818 112.489 -20.0106 -88.6663 -24.0683 51.1705 -17.2273 -16.6231 -12.2111 0.630171 10.6406 -5.08447 -3.2049 -164.927 8.06195 -10.2617 -2.09953 -27.3794 -5.62698 -0.109399 70.1903 -9.74027 -0.965272 26.367 -3.60229 166.686 -4.91396 12.273 5.11775 -16.262 11.1556 -11.682 72.0588 22.2217 0.963539 26.3682 3.55537 
-82.6046 95.7279 -166.95 2.75558 -2.49588 29.6247 0.0764329 -2.84785 0.252583 0.133325 8.25391 0.483269 0.0771427 14.8482 0.495039 -9.17042 0.472671 -5.00103 13.9933 -16.0838 -8.50505 -103.152 -15.2652 90.1348 40.9356 59.7826 8.74691 21.1972 -12.5239 -0.617959 -8.58203 -5.15615 35.6426 112.613 -20.1471 -88.617 -18.1448 51.1317 -21.9507 -16.5574 -12.5139 0.640327 10.7318 -4.25942 -5.89621 -167.226 9.44089 -9.72039 -3.65623 -29.6448 -5.25317 0.648143 71.3089 -7.95038 -0.965272 26.367 -3.60229 163.88 -5.0504 13.3935 4.21256 -17.9262 11.5208 -9.63966 71.5764 22.4311 0.963539 26.3682 3.55537 
-80.6553 95.5782 -167.863 3.73611 -1.76474 31.3544 -0.255922 -2.81356 0.410479 -0.549749 8.31995 0.905979 -0.656272 14.9136 0.927678 -10.4545 0.402181 -6.21595 15.5864 -15.5061 -10.2502 -102.359 -13.9086 90.4177 50.8773 57.5649 5.2832 22.3543 -12.8606 -0.632889 -8.00582 -4.28549 40.5296 112.008 -20.4265 -88.5648 -12.2884 51.8363 -27.3693 -17.3306 -12.7024 0.65629 10.3555 -4.00299 -9.44492 -169.613 10.3856 -8.49826 -4.8338 -30.7965 -5.61709 2.94933 72.664 -8.20174 -0.965272 26.367 -3.60229 161.608 -3.96216 15.2909 2.56155 -20.6422 11.222 -6.96513 70.6164 21.4528 0.963539 26.3682 3.55537 
-78.7799 95.642 -168.726 4.6041 -1.07029 32.1296 -0.545704 -2.76189 0.561418 -1.14698 8.41846 1.3014 -1.30067 15.0112 1.33265 -11.68 0.45724 -6.99459 16.4299 -15.098 -11.47 -102.305 -13.1738 90.567 58.0391 55.242 2.62894 24.6772 -13.5415 -0.660655 -6.70068 -4.29769 44.8357 110.852 -20.3257 -88.6604 -7.77702 52.8383 -32.1312 -17.7801 -12.9724 0.67132 8.62786 -3.02067 -12.2997 -172.958 10.0918 -6.31184 -4.62983 -29.962 -6.43562 7.20195 73.8193 -11.4152 -0.965272 26.367 -3.60229 159.364 -1.86906 15.3907 1.23418 -24.1351 11.4843 -5.9187 68.1142 20.9011 0.963539 26.3682 3.55537 
-77.0977 95.7143 -169.487 5.18259 -1.02788 32.5676 -0.736359 -2.61168 0.6139 -1.53892 8.71507 1.46982 -1.71289 15.3073 1.50592 -12.9449 0.603996 -7.40912 17.0023 -15.0439 -12.2744 -103.101 -12.7295 90.6715 62.3766 52.5468 2.16316 27.5742 -14.7113 -0.704201 -5.58959 -5.31462 46.1967 109.817 -20.1778 -88.7603 -5.92355 53.6846 -34.835 -17.6385 -12.8978 0.666979 7.54731 -0.599144 -13.6315 -175.548 9.58406 -3.61016 -4.49797 -29.5741 -7.73858 11.78 74.2731 -15.486 -0.965272 26.367 -3.60229 158.465 1.66697 15.1553 -1.52467 -29.8268 11.4873 -7.9162 64.1573 20.5827 0.963539 26.3682 3.55537 
-75.7322 95.8428 -169.979 5.32194 -1.43126 32.4101 -0.923442 -2.45921 0.678384 -1.92548 9.01525 1.66266 -2.12272 15.6069 1.70447 -13.6108 1.09471 -7.58265 17.677 -15.4359 -12.6865 -103.18 -12.5751 90.7056 65.3457 50.6127 1.51773 30.3741 -15.7057 -0.735265 -4.05186 -7.07945 44.038 109.676 -19.7043 -88.9014 -5.65367 54.3792 -35.2114 -17.46 -12.7175 0.658272 7.61432 1.86824 -13.3928 -175.817 8.66702 -2.2516 -6.63223 -29.0223 -9.43695 15.4665 74.2964 -17.9132 -0.965272 26.367 -3.60229 159.245 6.12509 12.7113 -3.46123 -36.2424 12.9298 -16.7286 60.4446 21.8483 0.963539 26.3682 3.55537 
